<?xml version="1.0" standalone="no"?>
<!DOCTYPE svg PUBLIC "-//W3C//DTD SVG 20010904//EN"
 "http://www.w3.org/TR/2001/REC-SVG-20010904/DTD/svg10.dtd">
<svg version="1.0" xmlns="http://www.w3.org/2000/svg"
 width="260.000000pt" height="260.000000pt" viewBox="0 0 260.000000 260.000000"
 preserveAspectRatio="xMidYMid meet">
<metadata>
Created by potrace 1.11, written by Peter Selinger 2001-2013
</metadata>
<g transform="translate(0.000000,260.000000) scale(0.100000,-0.100000)"
fill="#0053fa" stroke="none">
<path d="M300 2025 l0 -545 95 0 95 0 2 386 3 387 250 -386 250 -386 103 -1
102 0 0 545 0 545 -95 0 -95 0 0 -392 0 -391 -252 391 -253 391 -102 1 -103 0
0 -545z"/>
<path d="M1755 1703 c-125 -68 -74 -233 73 -233 117 0 187 97 133 186 -36 59
-140 83 -206 47z"/>
<path d="M2201 1702 c-99 -50 -100 -169 -3 -216 62 -30 154 -15 196 32 28 32
31 100 6 140 -37 59 -130 80 -199 44z"/>
<path d="M1650 585 l0 -545 405 0 405 0 0 80 0 80 -300 0 -300 0 0 170 0 170
235 0 235 0 0 80 0 80 -235 0 -235 0 0 135 0 135 290 0 290 0 0 80 0 80 -395
0 -395 0 0 -545z"/>
<path d="M212 1093 c9 -10 104 -147 212 -305 l196 -288 0 -230 0 -230 115 0
115 0 0 230 0 230 196 288 c108 158 203 295 212 305 14 16 8 17 -110 17 l-125
0 -143 -220 c-78 -121 -143 -220 -145 -220 -2 0 -67 99 -145 220 l-143 220
-125 0 c-118 0 -124 -1 -110 -17z"/>
</g>
</svg>
